<svg width="47" height="46" viewBox="0 0 47 46" fill="none" xmlns="http://www.w3.org/2000/svg">
<g clip-path="url(#clip0_1_13734)">
<path d="M29.3294 37.5114C27.1164 41.8998 20.8506 41.8998 18.6376 37.5114L6.48066 13.404C4.47259 9.42192 7.36686 4.72095 11.8266 4.72095L36.1404 4.72095C40.6001 4.72095 43.4943 9.42192 41.4863 13.404L29.3294 37.5114Z" stroke="#3D4E8B" stroke-width="2.85103"/>
<path fill-rule="evenodd" clip-rule="evenodd" d="M20.5673 8.12359C20.5673 7.99762 20.4652 7.89551 20.3392 7.89551H10.4742C9.26697 7.89551 8.47105 9.15275 8.98748 10.244L20.1331 33.7943C20.2372 34.0142 20.5673 33.9401 20.5673 33.6967V8.12359ZM27.5262 33.4294C27.5262 33.6727 27.8564 33.7469 27.9605 33.5269L38.9795 10.244C39.496 9.15275 38.7001 7.89551 37.4928 7.89551H27.7543C27.6284 7.89551 27.5262 7.99762 27.5262 8.12359V33.4294Z" fill="#3D4E8B"/>
</g>
<defs>
<clipPath id="clip0_1_13734">
<rect width="45.0463" height="44.9323" fill="white" transform="translate(0.983398 0.425781)"/>
</clipPath>
</defs>
</svg>
