<svg width="32" height="32" viewBox="0 0 32 32" fill="none" xmlns="http://www.w3.org/2000/svg">
<path fill-rule="evenodd" clip-rule="evenodd" d="M13.7389 25.0186C13.039 25.0186 12.5068 25.671 12.8729 26.2674C13.5177 27.3179 14.6771 28.0186 16.0001 28.0186C17.3231 28.0186 18.4824 27.3179 19.1273 26.2674C19.4935 25.671 18.9612 25.0186 18.2613 25.0186C17.8159 25.0186 17.4333 25.3119 17.0984 25.6055C16.8052 25.8627 16.4208 26.0186 16.0001 26.0186C15.5793 26.0186 15.1951 25.8627 14.9017 25.6055C14.5669 25.3119 14.1843 25.0186 13.7389 25.0186Z" fill="#00C7E3"/>
<mask id="mask0_111_2640" style="mask-type:alpha" maskUnits="userSpaceOnUse" x="4" y="2" width="24" height="22">
<path fill-rule="evenodd" clip-rule="evenodd" d="M26.0001 14.4671C26.0001 10.4826 24.0223 6.758 20.7215 4.5262L18.9874 3.35364C17.1827 2.13342 14.8174 2.13342 13.0127 3.35364L11.2786 4.52618C7.97781 6.758 6.00008 10.4826 6.00008 14.4671V17.0189C5.18175 17.7513 4.66675 18.8157 4.66675 20.0004C4.66675 22.2096 6.45761 24.0004 8.66675 24.0004H23.3334C25.5426 24.0004 27.3334 22.2096 27.3334 20.0004C27.3334 18.8157 26.8183 17.7513 26.0001 17.0189V14.4671Z" fill="white"/>
</mask>
<g mask="url(#mask0_111_2640)">
<path d="M20.7215 4.52619L19.6013 6.18301L20.7215 4.52619ZM26.0001 14.4671H28.0001H26.0001ZM18.9874 3.35363L20.1077 1.69682L18.9874 3.35363ZM13.0127 3.35363L11.8925 1.69682L13.0127 3.35363ZM11.2786 4.52618L12.3988 6.18301L11.2786 4.52618ZM6.00008 14.4671H8.00008H6.00008ZM6.00008 17.0189L7.33391 18.5092L8.00008 17.9129V17.0189H6.00008ZM26.0001 17.0189H24.0001V17.9129L24.6662 18.5092L26.0001 17.0189ZM19.6013 6.18301C22.3519 8.04283 24.0001 11.1467 24.0001 14.4671H28.0001C28.0001 9.81854 25.6927 5.47314 21.8418 2.86937L19.6013 6.18301ZM17.8671 5.01045L19.6013 6.18301L21.8418 2.86937L20.1077 1.69682L17.8671 5.01045ZM14.133 5.01045C15.2609 4.24782 16.7393 4.24782 17.8671 5.01045L20.1077 1.69682C17.6262 0.0190291 14.3739 0.0190286 11.8925 1.69682L14.133 5.01045ZM12.3988 6.18301L14.133 5.01045L11.8925 1.69682L10.1583 2.86937L12.3988 6.18301ZM8.00008 14.4671C8.00008 11.1467 9.64819 8.04283 12.3988 6.18301L10.1583 2.86937C6.30743 5.47314 4.00008 9.81854 4.00008 14.4671H8.00008ZM8.00008 17.0189V14.4671H4.00008V17.0189H8.00008ZM6.66675 20.0004C6.66675 19.4083 6.92155 18.8783 7.33391 18.5092L4.66625 15.5287C3.44195 16.6244 2.66675 18.2232 2.66675 20.0004H6.66675ZM8.66675 22.0004C7.56217 22.0004 6.66675 21.1049 6.66675 20.0004H2.66675C2.66675 23.3141 5.35304 26.0004 8.66675 26.0004V22.0004ZM23.3334 22.0004H8.66675V26.0004H23.3334V22.0004ZM25.3334 20.0004C25.3334 21.1049 24.4379 22.0004 23.3334 22.0004V26.0004C26.6471 26.0004 29.3334 23.3141 29.3334 20.0004H25.3334ZM24.6662 18.5092C25.0786 18.8783 25.3334 19.4083 25.3334 20.0004H29.3334C29.3334 18.2232 28.5582 16.6244 27.334 15.5287L24.6662 18.5092ZM24.0001 14.4671V17.0189H28.0001V14.4671H24.0001Z" fill="#00C7E3"/>
</g>
</svg>
