<svg width="81" height="81" viewBox="0 0 81 81" fill="none" xmlns="http://www.w3.org/2000/svg">
<path d="M45.5625 9.28125H35.4375C32.1756 9.28125 29.5312 11.9256 29.5312 15.1875C29.5312 18.4494 32.1756 21.0938 35.4375 21.0938H45.5625C48.8244 21.0938 51.4688 18.4494 51.4688 15.1875C51.4688 11.9256 48.8244 9.28125 45.5625 9.28125Z" stroke="#00C7E3" stroke-width="1.5"/>
<path fill-rule="evenodd" clip-rule="evenodd" d="M27.1568 13.6113C27.0539 14.1539 27 14.7139 27 15.2865C27 16.4793 27.2338 17.6176 27.6581 18.6579C25.8641 18.7225 24.3308 18.8306 22.9864 19.0113C19.8715 19.4301 18.5384 20.1539 17.6588 21.0335C16.7792 21.9131 16.0554 23.2462 15.6366 26.3611C15.1983 29.6216 15.1875 33.9927 15.1875 40.4997V47.2497C15.1875 53.7567 15.1983 58.1276 15.6366 61.3882C16.0554 64.503 16.7792 65.8361 17.6588 66.716C18.5384 67.5955 19.8715 68.3195 22.9864 68.738C26.2469 69.1764 30.6179 69.1872 37.125 69.1872H43.875C50.382 69.1872 54.753 69.1764 58.0135 68.738C61.1283 68.3195 62.4615 67.5955 63.3413 66.716C64.2208 65.8361 64.9444 64.503 65.3633 61.3882C65.8017 58.1276 65.8125 53.7567 65.8125 47.2497V40.4997C65.8125 33.9927 65.8017 29.6216 65.3633 26.3611C64.9444 23.2462 64.2208 21.9131 63.3413 21.0335C62.4615 20.1539 61.1283 19.4301 58.0135 19.0113C56.6693 18.8306 55.136 18.7225 53.3419 18.6579C53.7661 17.6176 54 16.4793 54 15.2865C54 14.7139 53.946 14.1539 53.8431 13.6113C60.2549 13.8663 64.1709 14.7037 66.9208 17.4538C70.875 21.4078 70.875 27.7718 70.875 40.4997V47.2497C70.875 59.9775 70.875 66.3417 66.9208 70.2955C62.967 74.2497 56.6028 74.2497 43.875 74.2497H37.125C24.3971 74.2497 18.0331 74.2497 14.079 70.2955C10.125 66.3417 10.125 59.9775 10.125 47.2497V40.4997C10.125 27.7718 10.125 21.4078 14.079 17.4538C16.8291 14.7037 20.7449 13.8663 27.1568 13.6113Z" fill="#00C7E3"/>
<path d="M33.75 45.5625L38.8125 50.625L48.9375 40.5" stroke="#00C7E3" stroke-width="1.5" stroke-linecap="round" stroke-linejoin="round"/>
</svg>
