<svg width="32" height="32" viewBox="0 0 32 32" fill="none" xmlns="http://www.w3.org/2000/svg">
<path d="M14.8224 4.88369C15.3237 3.93981 16.6762 3.93981 17.1776 4.88369L19.7856 9.79416C19.9782 10.157 20.3276 10.4108 20.7322 10.4819L26.2082 11.4449C27.2609 11.63 27.6787 12.9163 26.9359 13.6847L23.0718 17.6826C22.7862 17.9779 22.6529 18.3886 22.7102 18.7954L23.4866 24.301C23.6358 25.3593 22.5416 26.1542 21.5813 25.6853L16.585 23.2457C16.2158 23.0653 15.7841 23.0653 15.4149 23.2457L10.4187 25.6853C9.45829 26.1542 8.36411 25.3593 8.51334 24.301L9.28968 18.7954C9.34706 18.3886 9.21366 17.9779 8.92811 17.6826L5.06391 13.6847C4.32114 12.9163 4.73909 11.63 5.79169 11.4449L11.2677 10.4819C11.6724 10.4108 12.0216 10.157 12.2144 9.79416L14.8224 4.88369Z" stroke="#00C7E3" stroke-width="1.5"/>
</svg>
