<svg width="84" height="84" viewBox="0 0 84 84" fill="none" xmlns="http://www.w3.org/2000/svg">
<path d="M27.0454 9.625C23.2234 9.625 20.125 12.7234 20.125 16.5454V35C20.125 47.0813 29.9188 56.875 42 56.875C54.0813 56.875 63.875 47.0813 63.875 35V16.5454C63.875 12.7234 60.7764 9.625 56.9544 9.625H27.0454Z" stroke="#00C7E3" stroke-width="3"/>
<path d="M42 59.5V63" stroke="#00C7E3" stroke-width="3" stroke-linecap="round"/>
<path d="M52.5 65.625H31.5C29.0838 65.625 27.125 67.5838 27.125 70C27.125 72.4162 29.0838 74.375 31.5 74.375H52.5C54.9162 74.375 56.875 72.4162 56.875 70C56.875 67.5838 54.9162 65.625 52.5 65.625Z" stroke="#00C7E3" stroke-width="3"/>
<path d="M19.25 17.5C14.4175 17.5 10.5 21.4175 10.5 26.25V27.3995C10.5 30.025 11.543 32.543 13.3995 34.3995L21 42" stroke="#00C7E3" stroke-width="3" stroke-linecap="round" stroke-linejoin="round"/>
<path d="M64.75 17.5C69.5824 17.5 73.5 21.4175 73.5 26.25V27.3995C73.5 30.025 72.457 32.543 70.6006 34.3995L63 42" stroke="#00C7E3" stroke-width="3" stroke-linecap="round" stroke-linejoin="round"/>
</svg>
